<svg viewBox="0 0 240 240" xmlns="http://www.w3.org/2000/svg" xmlns:xlink="http://www.w3.org/1999/xlink" width="239.999695" height="239.999695" fill="none" customFrame="#000000">
	<defs>
		<linearGradient id="paint_linear_0" x1="-0.00220489502" x2="265.943756" y1="22.7026596" y2="270.81076" gradientUnits="userSpaceOnUse">
			<stop stop-color="rgb(67,185,255)" offset="0" stop-opacity="1" />
			<stop stop-color="rgb(54,148,255)" offset="0.493670881" stop-opacity="1" />
			<stop stop-color="rgb(40,111,254)" offset="1" stop-opacity="1" />
		</linearGradient>
		<linearGradient id="paint_linear_1" x1="-0.00220489502" x2="265.943756" y1="22.7026596" y2="270.81076" gradientUnits="userSpaceOnUse">
			<stop stop-color="rgb(67,185,255)" offset="0" stop-opacity="1" />
			<stop stop-color="rgb(54,148,255)" offset="0.493670881" stop-opacity="1" />
			<stop stop-color="rgb(40,111,254)" offset="1" stop-opacity="1" />
		</linearGradient>
		<linearGradient id="paint_linear_2" x1="197.242371" x2="63.9369659" y1="166.050018" y2="55.3353195" gradientUnits="userSpaceOnUse">
			<stop stop-color="rgb(46,129,254)" offset="0" stop-opacity="1" />
			<stop stop-color="rgb(39,121,255)" offset="1" stop-opacity="0" />
		</linearGradient>
		<g id="pixso_custom_effect_0">
			<effect visibility="visible" effectType="" stdDeviation="7" />
		</g>
		<filter id="filter_0" width="156.935913" height="133.162659" x="46.753845" y="53.417114" filterUnits="userSpaceOnUse" customEffect="url(#pixso_custom_effect_0)" color-interpolation-filters="sRGB">
			<feFlood flood-opacity="0" result="BackgroundImageFix" />
			<feBlend result="shape" in="SourceGraphic" in2="BackgroundImageFix" mode="normal" />
		</filter>
		<linearGradient id="paint_linear_3" x1="197.242371" x2="63.9369659" y1="166.050018" y2="55.3353195" gradientUnits="userSpaceOnUse">
			<stop stop-color="rgb(46,129,254)" offset="0" stop-opacity="1" />
			<stop stop-color="rgb(39,121,255)" offset="1" stop-opacity="0" />
		</linearGradient>
	</defs>
	<g id="组合 96">
		<path id="矩形 38" d="M79.9999 0L160 0C188 0 202 0 212.69 5.43999C222.1 10.24 229.75 17.89 234.55 27.3C240 37.99 240 51.9899 240 79.9999L240 160C240 188 240 202 234.55 212.69C229.75 222.1 222.1 229.75 212.69 234.55C202 240 188 240 160 240L79.9999 240C51.9899 240 37.99 240 27.3 234.55C17.89 229.75 10.24 222.1 5.43999 212.69C0 202 0 188 0 160L0 79.9999C0 51.9899 0 37.99 5.43999 27.3C10.24 17.89 17.89 10.24 27.3 5.43999C37.99 0 51.9899 0 79.9999 0Z" fill="url(#paint_linear_0)" fill-rule="evenodd" />
		<path id="矩形 39" d="M79.9999 0L160 0C188 0 202 0 212.69 5.43999C222.1 10.24 229.75 17.89 234.55 27.3C240 37.99 240 51.9899 240 79.9999L240 160C240 188 240 202 234.55 212.69C229.75 222.1 222.1 229.75 212.69 234.55C202 240 188 240 160 240L79.9999 240C51.9899 240 37.99 240 27.3 234.55C17.89 229.75 10.24 222.1 5.43999 212.69C0 202 0 188 0 160L0 79.9999C0 51.9899 0 37.99 5.43999 27.3C10.24 17.89 17.89 10.24 27.3 5.43999C37.99 0 51.9899 0 79.9999 0Z" fill="url(#paint_linear_1)" fill-rule="evenodd" />
		<path id="矢量 35" d="M123.16 59.0899C96.9399 45.6899 65.1799 56.8399 52.2399 83.9999C39.2899 111.15 50.0499 144.03 76.2699 157.42C89.3799 164.12 103.88 164.68 116.71 160.17C122.44 158.21 131.79 152.79 142.26 146.34C146.67 166.76 161.3 181.15 171.92 186.58L178.4 172.99C172.46 169.96 158.73 156.62 157.4 144.35C157.15 142.03 156.91 139.69 156.66 137.35C158.6 136.13 160.55 134.91 162.48 133.7C172.7 127.32 191.28 130.49 197.22 133.53L203.69 119.94C193.07 114.51 173.14 111.25 154.8 120.05C153.38 107.52 151.84 96.5399 149.87 90.6399C145.52 77.3499 136.27 65.7799 123.16 59.0899ZM140.59 129.14C145.16 126.23 149.96 123.14 154.8 120.05C155.43 125.61 156.04 131.48 156.66 137.35C151.78 140.41 146.91 143.48 142.26 146.34C141.69 140.48 141.14 134.66 140.59 129.14ZM140.59 129.14C127.71 137.31 116.67 143.97 111.79 145.14C102.67 148.35 92.3699 147.95 83.0599 143.19C64.4299 133.67 56.7799 110.31 65.9799 91.0199C75.1799 71.7199 97.7399 63.7999 116.38 73.3199C125.69 78.0799 132.26 86.2999 135.35 95.7399C137.42 100.46 139.02 113.59 140.59 129.14Z" fill="rgb(255,255,255)" fill-rule="evenodd" />
		<path id="矢量 36" d="M123.16 59.0899C96.9399 45.6899 65.1799 56.8399 52.2399 83.9999C39.2899 111.15 50.0499 144.03 76.2699 157.42C89.3799 164.12 103.88 164.68 116.71 160.17C122.44 158.21 131.79 152.79 142.26 146.34C146.67 166.76 161.3 181.15 171.92 186.58L178.4 172.99C172.46 169.96 158.73 156.62 157.4 144.35C157.15 142.03 156.91 139.69 156.66 137.35C158.6 136.13 160.55 134.91 162.48 133.7C172.7 127.32 191.28 130.49 197.22 133.53L203.69 119.94C193.07 114.51 173.14 111.25 154.8 120.05C153.38 107.52 151.84 96.5399 149.87 90.6399C145.52 77.3499 136.27 65.7799 123.16 59.0899ZM140.59 129.14C145.16 126.23 149.96 123.14 154.8 120.05C155.43 125.61 156.04 131.48 156.66 137.35C151.78 140.41 146.91 143.48 142.26 146.34C141.69 140.48 141.14 134.66 140.59 129.14ZM140.59 129.14C127.71 137.31 116.67 143.97 111.79 145.14C102.67 148.35 92.3699 147.95 83.0599 143.19C64.4299 133.67 56.7799 110.31 65.9799 91.0199C75.1799 71.7199 97.7399 63.7999 116.38 73.3199C125.69 78.0799 132.26 86.2999 135.35 95.7399C137.42 100.46 139.02 113.59 140.59 129.14Z" fill="url(#paint_linear_2)" fill-opacity="0.460000008" fill-rule="evenodd" />
		<g filter="url(#filter_0)">
			<path id="矢量 37" d="M123.16 59.0899C96.9399 45.6899 65.1799 56.8399 52.2399 83.9999C39.2899 111.15 50.0499 144.03 76.2699 157.42C89.3799 164.12 103.88 164.68 116.71 160.17C122.44 158.21 131.79 152.79 142.26 146.34C146.67 166.76 161.3 181.15 171.92 186.58L178.4 172.99C172.46 169.96 158.73 156.62 157.4 144.35C157.15 142.03 156.91 139.69 156.66 137.35C158.6 136.13 160.55 134.91 162.48 133.7C172.7 127.32 191.28 130.49 197.22 133.53L203.69 119.94C193.07 114.51 173.14 111.25 154.8 120.05C153.38 107.52 151.84 96.5399 149.87 90.6399C145.52 77.3499 136.27 65.7799 123.16 59.0899ZM140.59 129.14C145.16 126.23 149.96 123.14 154.8 120.05C155.43 125.61 156.04 131.48 156.66 137.35C151.78 140.41 146.91 143.48 142.26 146.34C141.69 140.48 141.14 134.66 140.59 129.14ZM140.59 129.14C127.71 137.31 116.67 143.97 111.79 145.14C102.67 148.35 92.3699 147.95 83.0599 143.19C64.4299 133.67 56.7799 110.31 65.9799 91.0199C75.1799 71.7199 97.7399 63.7999 116.38 73.3199C125.69 78.0799 132.26 86.2999 135.35 95.7399C137.42 100.46 139.02 113.59 140.59 129.14Z" fill="url(#paint_linear_3)" fill-opacity="0.460000008" fill-rule="evenodd" />
		</g>
	</g>
</svg>
