<svg viewBox="0 0 1641.75 240.846" xmlns="http://www.w3.org/2000/svg" xmlns:xlink="http://www.w3.org/1999/xlink" width="1641.752441" height="240.845703" fill="none" customFrame="#000000">
	<defs>
		<clipPath id="clipPath_0">
			<rect width="1641.752441" height="240.845703" x="0.000000" y="0.000000" fill="rgb(255,255,255)" />
		</clipPath>
		<linearGradient id="paint_linear_4" x1="1146.99988" x2="995.146179" y1="183.000092" y2="-155.96051" gradientUnits="userSpaceOnUse">
			<stop stop-color="rgb(40,111,254)" offset="0" stop-opacity="1" />
			<stop stop-color="rgb(66,184,255)" offset="1" stop-opacity="1" />
		</linearGradient>
		<linearGradient id="paint_linear_5" x1="-7.62939453e-06" x2="265.945953" y1="22.7026596" y2="270.81076" gradientUnits="userSpaceOnUse">
			<stop stop-color="rgb(67,185,255)" offset="0" stop-opacity="1" />
			<stop stop-color="rgb(54,148,255)" offset="0.493670881" stop-opacity="1" />
			<stop stop-color="rgb(40,111,254)" offset="1" stop-opacity="1" />
		</linearGradient>
		<linearGradient id="paint_linear_6" x1="-7.62939453e-06" x2="265.945953" y1="22.7026596" y2="270.81076" gradientUnits="userSpaceOnUse">
			<stop stop-color="rgb(67,185,255)" offset="0" stop-opacity="1" />
			<stop stop-color="rgb(54,148,255)" offset="0.493670881" stop-opacity="1" />
			<stop stop-color="rgb(40,111,254)" offset="1" stop-opacity="1" />
		</linearGradient>
		<linearGradient id="paint_linear_7" x1="197.244568" x2="63.9391632" y1="166.050018" y2="55.3353348" gradientUnits="userSpaceOnUse">
			<stop stop-color="rgb(46,129,254)" offset="0" stop-opacity="1" />
			<stop stop-color="rgb(39,121,255)" offset="1" stop-opacity="0" />
		</linearGradient>
		<g id="pixso_custom_effect_1">
			<effect visibility="visible" effectType="" stdDeviation="7" />
		</g>
		<filter id="filter_1" width="156.935913" height="133.162659" x="46.756042" y="53.417130" filterUnits="userSpaceOnUse" customEffect="url(#pixso_custom_effect_1)" color-interpolation-filters="sRGB">
			<feFlood flood-opacity="0" result="BackgroundImageFix" />
			<feBlend result="shape" in="SourceGraphic" in2="BackgroundImageFix" mode="normal" />
		</filter>
		<linearGradient id="paint_linear_8" x1="197.244568" x2="63.9391632" y1="166.050018" y2="55.3353348" gradientUnits="userSpaceOnUse">
			<stop stop-color="rgb(46,129,254)" offset="0" stop-opacity="1" />
			<stop stop-color="rgb(39,121,255)" offset="1" stop-opacity="0" />
		</linearGradient>
	</defs>
	<g id="组合 92">
		<g id="组合 91" clip-path="url(#clipPath_0)" customFrame="url(#clipPath_0)">
			<rect id="组合 91" width="1641.752441" height="240.845703" x="0.000000" y="0.000000" />
			<path id="矢量 34" d="M364.592 183.39L364.592 0L391.322 0L391.322 161.06L474.112 161.06L474.112 183.39L364.592 183.39ZM959.671 183.39L959.671 109.63C959.671 100.56 956.791 93.4299 951.001 88.2399C945.221 83.0199 937.971 80.3999 929.231 80.3999C923.371 80.3999 918.111 81.5899 913.461 83.9799C908.851 86.3599 905.111 89.7099 902.251 94.0099C899.421 98.2799 898.011 103.4 898.011 109.38L898.011 183.39L873.951 183.39L873.951 61.3399L898.011 61.3399L898.011 75.5499C901.711 71.0799 906.251 67.4299 911.631 64.5999C918.931 60.7099 927.121 58.7599 936.211 58.7599C945.121 58.7599 953.161 60.6699 960.331 64.4699C967.541 68.2299 973.231 73.5399 977.411 80.3999C977.501 80.5599 977.601 80.7099 977.691 80.8699C977.771 80.7599 977.851 80.6399 977.931 80.5299C982.661 73.7499 988.771 68.4399 996.241 64.5999C1003.72 60.7099 1011.92 58.7599 1020.82 58.7599C1030.07 58.7599 1038.36 60.6699 1045.66 64.4699C1052.96 68.2299 1058.78 73.5399 1063.13 80.3999C1067.52 87.2199 1069.71 95.4299 1069.71 105.05L1069.71 183.39L1045.4 183.39L1045.4 109.63C1045.4 100.56 1042.51 93.4299 1036.73 88.2399C1030.94 83.0199 1023.78 80.3999 1015.22 80.3999C1009.35 80.3999 1004.05 81.5899 999.311 83.9799C994.611 86.3599 990.831 89.7099 987.971 94.0099C985.141 98.2799 983.731 103.4 983.731 109.38L983.731 183.39L959.671 183.39ZM1160.19 185.96C1147.73 185.96 1136.51 183.14 1126.56 177.49C1116.61 171.85 1108.68 164.2 1102.77 154.54C1096.9 144.84 1093.97 133.99 1093.97 121.99C1093.97 110.15 1096.9 99.4899 1102.77 89.9999C1108.68 80.5099 1116.61 72.9399 1126.56 67.2899C1136.51 61.6099 1147.73 58.7599 1160.19 58.7599C1172.5 58.7599 1183.66 61.5699 1193.69 67.1699C1203.79 72.7299 1211.76 80.2999 1217.63 89.8699C1223.49 99.4499 1226.43 110.15 1226.43 121.99C1226.43 133.99 1223.49 144.84 1217.63 154.54C1211.76 164.2 1203.79 171.85 1193.69 177.49C1183.66 183.14 1172.5 185.96 1160.19 185.96ZM562.462 66.1699C568.161 64.7899 575.721 63.3299 585.151 61.7799C594.581 60.2299 605.441 59.4599 617.741 59.4599C628.781 59.4599 637.931 60.9699 645.191 63.9799C652.491 66.9499 658.311 71.1299 662.661 76.5199C667.051 81.9099 670.131 88.3999 671.911 95.9599C673.691 103.49 674.591 111.79 674.591 120.86L674.591 183.39L649.751 183.39C649.751 183.39 649.771 179.41 649.771 173.19C649.771 153.09 649.581 109.57 647.991 101.37C645.911 90.6199 641.041 85.5799 631.561 82.9799C627.131 81.3499 621.631 80.5299 615.071 80.5299C612.381 80.5299 609.591 80.6199 606.731 80.7899C603.901 80.9499 601.191 81.1599 598.581 81.4099C596.011 81.6599 593.711 81.9799 591.671 82.3499C589.631 82.6899 588.171 82.9399 587.301 83.1099L587.301 183.39L562.462 183.39L562.462 66.1699ZM499.142 183.39L499.142 61.3399L523.192 61.3399L523.192 183.39L499.142 183.39ZM835.561 123.09C835.561 156.56 807.301 183.75 772.511 183.75C737.731 183.75 709.471 156.56 709.471 123.09C709.471 89.6199 737.731 62.4399 772.511 62.4399C787.201 62.4399 800.731 67.2799 811.451 75.4099L811.451 62.4399L835.561 62.4399L835.561 123.09ZM1160.19 163.63C1168.18 163.63 1175.3 161.83 1181.51 158.24C1187.77 154.64 1192.68 149.73 1196.25 143.5C1199.81 137.23 1201.59 130.06 1201.59 121.99C1201.59 114.12 1199.77 107.12 1196.11 100.97C1192.46 94.7899 1187.55 89.9399 1181.38 86.4199C1175.26 82.9099 1168.18 81.1499 1160.19 81.1499C1152.19 81.1499 1145.06 82.9099 1138.81 86.4199C1132.6 89.9399 1127.71 94.7899 1124.15 100.97C1120.59 107.12 1118.8 114.12 1118.8 121.99C1118.8 130.06 1120.59 137.23 1124.15 143.5C1127.71 149.73 1132.56 154.64 1138.81 158.24C1145.06 161.83 1152.19 163.63 1160.19 163.63ZM772.511 160.56C794.001 160.56 811.451 143.77 811.451 123.09C811.451 102.42 794.001 85.6299 772.511 85.6299C751.031 85.6299 733.571 102.42 733.571 123.09C733.571 143.77 751.031 160.56 772.511 160.56ZM772.511 240.84C747.641 240.84 726.101 226.94 715.851 206.78L744.991 206.67C752.041 213.45 761.771 217.65 772.511 217.65C783.261 217.65 792.991 213.45 800.041 206.67C805.561 201.35 809.431 194.46 810.851 186.75L835.191 186.75C834.391 193.86 832.311 200.61 829.181 206.78C818.921 226.94 797.391 240.84 772.511 240.84Z" fill="url(#paint_linear_4)" fill-rule="evenodd" />
			<path id="矢量 34" d="M1325.19 45.3699C1318.13 59.5799 1314.6 75.5599 1314.6 93.3199C1314.6 111.03 1318.13 127 1325.19 141.2C1332.26 155.41 1342.29 166.53 1355.29 174.57C1368.32 182.58 1383.36 186.58 1400.39 186.58C1417.64 186.58 1432.76 182.58 1445.75 174.57C1458.75 166.53 1468.82 155.41 1475.97 141.2C1483.12 127 1486.7 111.03 1486.7 93.3199C1486.7 75.5599 1483.12 59.5799 1475.97 45.3699C1468.82 31.16 1458.75 20.06 1445.75 12.06C1432.76 4.01999 1417.64 0 1400.39 0C1383.36 0 1368.32 4.01999 1355.29 12.06C1342.29 20.06 1332.26 31.16 1325.19 45.3699ZM1519.3 124.91L1501.95 124.91C1503 143.28 1509.9 158.12 1522.65 169.43C1535.39 180.7 1553.39 186.33 1576.65 186.33C1589.39 186.33 1600.7 184.17 1610.59 179.84C1620.51 175.47 1628.19 169.37 1633.61 161.53C1639.04 153.65 1641.75 144.45 1641.75 133.91C1641.75 122.03 1638.96 112.63 1633.36 105.69C1627.77 98.7499 1620.41 93.5599 1611.28 90.1299C1602.16 86.6999 1590.44 83.6599 1576.14 81.0099C1564.07 78.8399 1554.5 76.5199 1547.44 74.0299C1540.37 71.4999 1535.03 68.1099 1531.41 63.8599C1527.8 59.5799 1525.99 53.9999 1525.99 47.1499C1525.99 37.1 1530.03 29.12 1538.1 23.2C1546.22 17.24 1557.26 14.26 1571.22 14.26C1584.64 14.26 1595.62 17.57 1604.15 24.18C1612.69 30.8 1617.74 40.29 1619.29 52.6599L1636.07 52.6599C1634.35 36.61 1628.02 23.88 1617.09 14.45C1606.15 4.97999 1590.78 0.24 1570.97 0.24C1558.73 0.24 1547.96 2.22 1538.67 6.17999C1529.37 10.1 1522.14 15.65 1516.97 22.84C1511.79 30.02 1509.21 38.29 1509.21 47.6299C1509.21 57.6799 1511.56 65.8399 1516.27 72.1299C1521.03 78.3699 1527.57 83.2499 1535.89 86.7599C1544.26 90.2799 1554.73 93.1899 1567.31 95.5199C1581.99 98.3799 1593.2 101.2 1600.94 103.97C1608.67 106.71 1614.48 110.46 1618.35 115.24C1622.26 120.02 1624.21 126.48 1624.21 134.65C1624.21 146.53 1619.82 155.78 1611.03 162.39C1602.24 169 1590.86 172.31 1576.9 172.31C1559.49 172.31 1545.73 168.17 1535.64 159.88C1525.59 151.59 1520.14 139.94 1519.3 124.91ZM1460.77 53.4499C1466.02 65.2899 1468.65 78.5799 1468.65 93.3199C1468.65 108.01 1466.02 121.3 1460.77 133.18C1455.51 145.06 1447.71 154.43 1437.36 161.29C1427.02 168.14 1414.69 171.57 1400.39 171.57C1386.09 171.57 1373.85 168.14 1363.68 161.29C1353.54 154.43 1345.84 145.06 1340.59 133.18C1335.33 121.3 1332.7 108.01 1332.7 93.3199C1332.7 78.5799 1335.33 65.2899 1340.59 53.4499C1345.84 41.57 1353.54 32.2 1363.68 25.35C1373.85 18.49 1386.09 15.06 1400.39 15.06C1414.69 15.06 1427.02 18.49 1437.36 25.35C1447.71 32.2 1455.51 41.57 1460.77 53.4499Z" fill="rgb(40,111,254)" fill-rule="evenodd" />
			<path id="矢量 34" d="M511.202 36.94C506.722 36.94 503.052 35.54 500.182 32.74C497.352 29.89 495.942 26.34 495.942 22.07C495.942 17.93 497.352 14.46 500.182 11.66C503.052 8.81999 506.722 7.39999 511.202 7.39999C515.632 7.39999 519.262 8.81999 522.082 11.66C524.952 14.46 526.382 17.93 526.382 22.07C526.382 26.34 524.952 29.89 522.082 32.74C519.262 35.54 515.632 36.94 511.202 36.94Z" fill="rgb(66,182,255)" fill-rule="evenodd" />
			<path id="矩形 36" d="M80.0021 0L160.002 0C188.002 0 202.002 0 212.692 5.43999C222.102 10.24 229.752 17.89 234.552 27.3C240.002 37.99 240.002 51.9899 240.002 79.9999L240.002 160C240.002 188 240.002 202 234.552 212.69C229.752 222.1 222.102 229.75 212.692 234.55C202.002 240 188.002 240 160.002 240L80.0021 240C51.9921 240 37.9922 240 27.3022 234.55C17.8922 229.75 10.2422 222.1 5.44219 212.69C0.00219727 202 0.00219727 188 0.00219727 160L0.00219727 79.9999C0.00219727 51.9899 0.00219727 37.99 5.44219 27.3C10.2422 17.89 17.8922 10.24 27.3022 5.43999C37.9922 0 51.9921 0 80.0021 0Z" fill="url(#paint_linear_5)" fill-rule="evenodd" />
			<path id="矩形 37" d="M80.0021 0L160.002 0C188.002 0 202.002 0 212.692 5.43999C222.102 10.24 229.752 17.89 234.552 27.3C240.002 37.99 240.002 51.9899 240.002 79.9999L240.002 160C240.002 188 240.002 202 234.552 212.69C229.752 222.1 222.102 229.75 212.692 234.55C202.002 240 188.002 240 160.002 240L80.0021 240C51.9921 240 37.9922 240 27.3022 234.55C17.8922 229.75 10.2422 222.1 5.44219 212.69C0.00219727 202 0.00219727 188 0.00219727 160L0.00219727 79.9999C0.00219727 51.9899 0.00219727 37.99 5.44219 27.3C10.2422 17.89 17.8922 10.24 27.3022 5.43999C37.9922 0 51.9921 0 80.0021 0Z" fill="url(#paint_linear_6)" fill-rule="evenodd" />
			<path id="矢量 30" d="M123.162 59.0899C96.9421 45.6899 65.1821 56.8399 52.2421 83.9999C39.2921 111.15 50.0521 144.03 76.2721 157.42C89.3821 164.12 103.882 164.68 116.712 160.17C122.442 158.21 131.792 152.79 142.262 146.34C146.672 166.76 161.302 181.15 171.922 186.58L178.402 172.99C172.462 169.96 158.732 156.62 157.402 144.35C157.152 142.03 156.912 139.69 156.662 137.35C158.602 136.13 160.552 134.91 162.482 133.7C172.702 127.32 191.282 130.49 197.222 133.53L203.692 119.94C193.072 114.51 173.142 111.25 154.802 120.05C153.382 107.52 151.842 96.5399 149.872 90.6399C145.522 77.3499 136.272 65.7799 123.162 59.0899ZM140.592 129.14C145.162 126.23 149.962 123.14 154.802 120.05C155.432 125.61 156.042 131.48 156.662 137.35C151.782 140.41 146.912 143.48 142.262 146.34C141.692 140.48 141.142 134.66 140.592 129.14ZM140.592 129.14C127.712 137.31 116.672 143.97 111.792 145.14C102.672 148.35 92.3721 147.95 83.0621 143.19C64.4321 133.67 56.7821 110.31 65.9821 91.0199C75.1821 71.7199 97.7421 63.7999 116.382 73.3199C125.692 78.0799 132.262 86.2999 135.352 95.7399C137.422 100.46 139.022 113.59 140.592 129.14Z" fill="rgb(255,255,255)" fill-rule="evenodd" />
			<path id="矢量 30" d="M123.162 59.0899C96.9421 45.6899 65.1821 56.8399 52.2421 83.9999C39.2921 111.15 50.0521 144.03 76.2721 157.42C89.3821 164.12 103.882 164.68 116.712 160.17C122.442 158.21 131.792 152.79 142.262 146.34C146.672 166.76 161.302 181.15 171.922 186.58L178.402 172.99C172.462 169.96 158.732 156.62 157.402 144.35C157.152 142.03 156.912 139.69 156.662 137.35C158.602 136.13 160.552 134.91 162.482 133.7C172.702 127.32 191.282 130.49 197.222 133.53L203.692 119.94C193.072 114.51 173.142 111.25 154.802 120.05C153.382 107.52 151.842 96.5399 149.872 90.6399C145.522 77.3499 136.272 65.7799 123.162 59.0899ZM140.592 129.14C145.162 126.23 149.962 123.14 154.802 120.05C155.432 125.61 156.042 131.48 156.662 137.35C151.782 140.41 146.912 143.48 142.262 146.34C141.692 140.48 141.142 134.66 140.592 129.14ZM140.592 129.14C127.712 137.31 116.672 143.97 111.792 145.14C102.672 148.35 92.3721 147.95 83.0621 143.19C64.4321 133.67 56.7821 110.31 65.9821 91.0199C75.1821 71.7199 97.7421 63.7999 116.382 73.3199C125.692 78.0799 132.262 86.2999 135.352 95.7399C137.422 100.46 139.022 113.59 140.592 129.14Z" fill="url(#paint_linear_7)" fill-opacity="0.460000008" fill-rule="evenodd" />
			<g filter="url(#filter_1)">
				<path id="矢量 31" d="M123.162 59.0899C96.9421 45.6899 65.1821 56.8399 52.2421 83.9999C39.2921 111.15 50.0521 144.03 76.2721 157.42C89.3821 164.12 103.882 164.68 116.712 160.17C122.442 158.21 131.792 152.79 142.262 146.34C146.672 166.76 161.302 181.15 171.922 186.58L178.402 172.99C172.462 169.96 158.732 156.62 157.402 144.35C157.152 142.03 156.912 139.69 156.662 137.35C158.602 136.13 160.552 134.91 162.482 133.7C172.702 127.32 191.282 130.49 197.222 133.53L203.692 119.94C193.072 114.51 173.142 111.25 154.802 120.05C153.382 107.52 151.842 96.5399 149.872 90.6399C145.522 77.3499 136.272 65.7799 123.162 59.0899ZM140.592 129.14C145.162 126.23 149.962 123.14 154.802 120.05C155.432 125.61 156.042 131.48 156.662 137.35C151.782 140.41 146.912 143.48 142.262 146.34C141.692 140.48 141.142 134.66 140.592 129.14ZM140.592 129.14C127.712 137.31 116.672 143.97 111.792 145.14C102.672 148.35 92.3721 147.95 83.0621 143.19C64.4321 133.67 56.7821 110.31 65.9821 91.0199C75.1821 71.7199 97.7421 63.7999 116.382 73.3199C125.692 78.0799 132.262 86.2999 135.352 95.7399C137.422 100.46 139.022 113.59 140.592 129.14Z" fill="url(#paint_linear_8)" fill-opacity="0.460000008" fill-rule="evenodd" />
			</g>
		</g>
	</g>
</svg>
